<?xml version="1.0" encoding="UTF-8" standalone="no"?>
<svg
   width="62"
   height="55.08849"
   viewBox="0 0 62 55.08849"
   fill="none"
   version="1.1"
   id="svg12"
   sodipodi:docname="Extension.svg"
   inkscape:version="1.4.3 (0d15f75, 2025-12-25)"
   xmlns:inkscape="http://www.inkscape.org/namespaces/inkscape"
   xmlns:sodipodi="http://sodipodi.sourceforge.net/DTD/sodipodi-0.dtd"
   xmlns="http://www.w3.org/2000/svg"
   xmlns:svg="http://www.w3.org/2000/svg">
  <defs
     id="defs12" />
  <sodipodi:namedview
     id="namedview12"
     pagecolor="#ffffff"
     bordercolor="#000000"
     borderopacity="0.25"
     inkscape:showpageshadow="2"
     inkscape:pageopacity="0.0"
     inkscape:pagecheckerboard="0"
     inkscape:deskcolor="#d1d1d1"
     inkscape:zoom="4.6315789"
     inkscape:cx="95"
     inkscape:cy="27.528409"
     inkscape:window-width="2369"
     inkscape:window-height="1186"
     inkscape:window-x="2240"
     inkscape:window-y="803"
     inkscape:window-maximized="0"
     inkscape:current-layer="svg12" />
  <path
     fill-rule="evenodd"
     clip-rule="evenodd"
     d="m 59,42.128736 v -28.4461 L 12,3.2807856 V 51.859536 Z m 1.4055,2.7727 C 61.3341,44.709136 62,43.891236 62,42.942936 v -30.0632 c 0,-0.938 -0.6519,-1.75 -1.5678,-1.9527 l -49,-10.84451143 C 10.1836,-0.19380543 9,0.75648557 9,2.0352756 l -10e-6,51.0524604 c 0,1.2676 1.16421,2.2155 2.40551,1.9585 z"
     fill="#d53f8c"
     id="path1" />
  <path
     d="m 0,12.145536 c 0,-0.9483 0.665933,-1.7662 1.59452,-1.9585 L 50.5945,0.04225457 C 51.8358,-0.21473743 53,0.73310557 53,2.0007256 V 53.053236 c 0,1.2788 -1.1836,2.229 -2.4322,1.9527 L 1.56783,44.161536 C 0.651943,43.958836 0,43.146736 0,42.208736 Z"
     fill="#f2e142"
     id="path2" />
  <path
     d="M 12,2.5735556 V 52.569436 H 9.00001 V 2.5735556 Z"
     fill="#d53f8c"
     id="path3" />
</svg>
